<svg width="2252" height="591" viewBox="0 0 2252 591" fill="none" xmlns="http://www.w3.org/2000/svg">
<path d="M579.17 578L521.84 406.5H547.075L599.75 564.77H587.01L641.645 406.5H664.185L717.595 564.77H705.345L758.755 406.5H782.03L724.7 578H698.975L648.995 431.245H655.61L605.385 578H579.17ZM887.746 579.96C874.679 579.96 862.511 577.755 851.241 573.345C840.134 568.935 830.497 562.81 822.331 554.97C814.164 546.967 807.794 537.657 803.221 527.04C798.647 516.423 796.361 504.827 796.361 492.25C796.361 479.673 798.647 468.077 803.221 457.46C807.794 446.843 814.164 437.615 822.331 429.775C830.497 421.772 840.134 415.565 851.241 411.155C862.347 406.745 874.516 404.54 887.746 404.54C900.812 404.54 912.817 406.745 923.761 411.155C934.867 415.402 944.504 421.527 952.671 429.53C961.001 437.37 967.371 446.598 971.781 457.215C976.354 467.832 978.641 479.51 978.641 492.25C978.641 504.99 976.354 516.668 971.781 527.285C967.371 537.902 961.001 547.212 952.671 555.215C944.504 563.055 934.867 569.18 923.761 573.59C912.817 577.837 900.812 579.96 887.746 579.96ZM887.746 558.155C897.219 558.155 905.957 556.522 913.961 553.255C922.127 549.988 929.151 545.415 935.031 539.535C941.074 533.492 945.729 526.468 948.996 518.465C952.426 510.462 954.141 501.723 954.141 492.25C954.141 482.777 952.426 474.038 948.996 466.035C945.729 458.032 941.074 451.09 935.031 445.21C929.151 439.167 922.127 434.512 913.961 431.245C905.957 427.978 897.219 426.345 887.746 426.345C878.109 426.345 869.207 427.978 861.041 431.245C853.037 434.512 846.014 439.167 839.971 445.21C833.927 451.09 829.191 458.032 825.761 466.035C822.494 474.038 820.861 482.777 820.861 492.25C820.861 501.723 822.494 510.462 825.761 518.465C829.191 526.468 833.927 533.492 839.971 539.535C846.014 545.415 853.037 549.988 861.041 553.255C869.207 556.522 878.109 558.155 887.746 558.155ZM1016.09 578V406.5H1082.97C1098 406.5 1110.82 408.868 1121.44 413.605C1132.05 418.342 1140.22 425.202 1145.94 434.185C1151.65 443.168 1154.51 453.867 1154.51 466.28C1154.51 478.693 1151.65 489.392 1145.94 498.375C1140.22 507.195 1132.05 513.973 1121.44 518.71C1110.82 523.447 1098 525.815 1082.97 525.815H1029.56L1040.59 514.545V578H1016.09ZM1130.75 578L1087.14 515.77H1113.35L1157.45 578H1130.75ZM1040.59 516.995L1029.56 504.99H1082.24C1097.92 504.99 1109.76 501.642 1117.76 494.945C1125.93 488.085 1130.01 478.53 1130.01 466.28C1130.01 454.03 1125.93 444.557 1117.76 437.86C1109.76 431.163 1097.92 427.815 1082.24 427.815H1029.56L1040.59 415.565V516.995ZM1215.66 536.595L1214.43 506.705L1311.7 406.5H1339.63L1264.41 485.88L1250.69 501.07L1215.66 536.595ZM1194.1 578V406.5H1218.6V578H1194.1ZM1315.62 578L1245.3 496.17L1261.72 478.04L1344.28 578H1315.62ZM1416.58 579.96C1403.51 579.96 1391.02 578 1379.1 574.08C1367.17 569.997 1357.78 564.77 1350.92 558.4L1359.99 539.29C1366.52 545.007 1374.85 549.743 1384.98 553.5C1395.1 557.257 1405.64 559.135 1416.58 559.135C1426.54 559.135 1434.63 557.992 1440.84 555.705C1447.04 553.418 1451.62 550.315 1454.56 546.395C1457.5 542.312 1458.97 537.738 1458.97 532.675C1458.97 526.795 1457.01 522.058 1453.09 518.465C1449.33 514.872 1444.35 512.013 1438.14 509.89C1432.1 507.603 1425.4 505.643 1418.05 504.01C1410.7 502.377 1403.27 500.498 1395.76 498.375C1388.41 496.088 1381.63 493.23 1375.42 489.8C1369.38 486.37 1364.48 481.797 1360.72 476.08C1356.96 470.2 1355.09 462.687 1355.09 453.54C1355.09 444.72 1357.37 436.635 1361.95 429.285C1366.68 421.772 1373.87 415.81 1383.51 411.4C1393.31 406.827 1405.72 404.54 1420.75 404.54C1430.71 404.54 1440.59 405.847 1450.39 408.46C1460.19 411.073 1468.68 414.83 1475.87 419.73L1467.79 439.33C1460.44 434.43 1452.68 430.918 1444.51 428.795C1436.34 426.508 1428.42 425.365 1420.75 425.365C1411.11 425.365 1403.19 426.59 1396.98 429.04C1390.77 431.49 1386.2 434.757 1383.26 438.84C1380.48 442.923 1379.1 447.497 1379.1 452.56C1379.1 458.603 1380.97 463.422 1384.73 467.015C1388.65 470.608 1393.63 473.467 1399.68 475.59C1405.88 477.713 1412.66 479.673 1420.01 481.47C1427.36 483.103 1434.71 484.982 1442.06 487.105C1449.57 489.228 1456.35 492.005 1462.4 495.435C1468.6 498.865 1473.58 503.438 1477.34 509.155C1481.1 514.872 1482.98 522.222 1482.98 531.205C1482.98 539.862 1480.61 547.947 1475.87 555.46C1471.13 562.81 1463.78 568.772 1453.82 573.345C1444.02 577.755 1431.61 579.96 1416.58 579.96ZM1518.77 578V406.5H1585.65C1600.68 406.5 1613.5 408.868 1624.12 413.605C1634.73 418.342 1642.9 425.202 1648.62 434.185C1654.33 443.168 1657.19 453.867 1657.19 466.28C1657.19 478.693 1654.33 489.392 1648.62 498.375C1642.9 507.195 1634.73 514.055 1624.12 518.955C1613.5 523.692 1600.68 526.06 1585.65 526.06H1532.24L1543.27 514.545V578H1518.77ZM1543.27 516.995L1532.24 504.745H1584.92C1600.6 504.745 1612.44 501.397 1620.44 494.7C1628.61 488.003 1632.69 478.53 1632.69 466.28C1632.69 454.03 1628.61 444.557 1620.44 437.86C1612.44 431.163 1600.6 427.815 1584.92 427.815H1532.24L1543.27 415.565V516.995ZM1658.6 578L1736.27 406.5H1760.52L1838.43 578H1812.71L1743.37 420.22H1753.17L1683.84 578H1658.6ZM1691.68 535.125L1698.29 515.525H1794.82L1801.93 535.125H1691.68ZM1938.31 579.96C1925.24 579.96 1913.16 577.837 1902.05 573.59C1891.11 569.18 1881.55 563.055 1873.38 555.215C1865.38 547.212 1859.09 537.902 1854.52 527.285C1849.95 516.668 1847.66 504.99 1847.66 492.25C1847.66 479.51 1849.95 467.832 1854.52 457.215C1859.09 446.598 1865.46 437.37 1873.63 429.53C1881.8 421.527 1891.35 415.402 1902.29 411.155C1913.4 406.745 1925.49 404.54 1938.55 404.54C1951.78 404.54 1963.95 406.827 1975.06 411.4C1986.33 415.81 1995.88 422.425 2003.72 431.245L1987.8 446.68C1981.27 439.82 1973.92 434.757 1965.75 431.49C1957.58 428.06 1948.84 426.345 1939.53 426.345C1929.9 426.345 1920.91 427.978 1912.58 431.245C1904.42 434.512 1897.31 439.085 1891.27 444.965C1885.23 450.845 1880.49 457.868 1877.06 466.035C1873.79 474.038 1872.16 482.777 1872.16 492.25C1872.16 501.723 1873.79 510.543 1877.06 518.71C1880.49 526.713 1885.23 533.655 1891.27 539.535C1897.31 545.415 1904.42 549.988 1912.58 553.255C1920.91 556.522 1929.9 558.155 1939.53 558.155C1948.84 558.155 1957.58 556.522 1965.75 553.255C1973.92 549.825 1981.27 544.598 1987.8 537.575L2003.72 553.01C1995.88 561.83 1986.33 568.527 1975.06 573.1C1963.95 577.673 1951.7 579.96 1938.31 579.96ZM2060.97 480.49H2149.17V501.315H2060.97V480.49ZM2063.18 556.685H2163.14V578H2038.68V406.5H2159.71V427.815H2063.18V556.685Z" fill="white"/>
<path d="M567.109 326V276.86L570.322 285.554L514.189 193.7H529.12L578.449 274.403H570.511L619.84 193.7H633.826L577.693 285.554L580.906 276.86V326H567.109ZM707.629 327.134C697.675 327.134 688.414 325.496 679.846 322.22C671.404 318.818 664.033 314.093 657.733 308.045C651.559 301.871 646.708 294.752 643.18 286.688C639.778 278.498 638.077 269.552 638.077 259.85C638.077 250.148 639.778 241.265 643.18 233.201C646.708 225.011 651.559 217.892 657.733 211.844C664.033 205.67 671.404 200.945 679.846 197.669C688.288 194.267 697.549 192.566 707.629 192.566C717.583 192.566 726.781 194.267 735.223 197.669C743.665 200.945 750.973 205.607 757.147 211.655C763.447 217.703 768.298 224.822 771.7 233.012C775.228 241.202 776.992 250.148 776.992 259.85C776.992 269.552 775.228 278.498 771.7 286.688C768.298 294.878 763.447 301.997 757.147 308.045C750.973 314.093 743.665 318.818 735.223 322.22C726.781 325.496 717.583 327.134 707.629 327.134ZM707.629 314.66C715.567 314.66 722.875 313.337 729.553 310.691C736.357 307.919 742.216 304.076 747.13 299.162C752.17 294.122 756.076 288.326 758.848 281.774C761.62 275.096 763.006 267.788 763.006 259.85C763.006 251.912 761.62 244.667 758.848 238.115C756.076 231.437 752.17 225.641 747.13 220.727C742.216 215.687 736.357 211.844 729.553 209.198C722.875 206.426 715.567 205.04 707.629 205.04C699.691 205.04 692.32 206.426 685.516 209.198C678.712 211.844 672.79 215.687 667.75 220.727C662.836 225.641 658.93 231.437 656.032 238.115C653.26 244.667 651.874 251.912 651.874 259.85C651.874 267.662 653.26 274.907 656.032 281.585C658.93 288.263 662.836 294.122 667.75 299.162C672.79 304.076 678.712 307.919 685.516 310.691C692.32 313.337 699.691 314.66 707.629 314.66ZM861.639 327.134C844.755 327.134 831.462 322.283 821.76 312.581C812.058 302.879 807.207 288.515 807.207 269.489V193.7H821.193V268.922C821.193 284.546 824.721 296.075 831.777 303.509C838.833 310.943 848.787 314.66 861.639 314.66C874.617 314.66 884.634 310.943 891.69 303.509C898.746 296.075 902.274 284.546 902.274 268.922V193.7H915.882V269.489C915.882 288.515 911.031 302.879 901.329 312.581C891.753 322.283 878.523 327.134 861.639 327.134ZM958.027 326V193.7H1007.55C1018.76 193.7 1028.4 195.527 1036.46 199.181C1044.53 202.709 1050.7 207.875 1054.98 214.679C1059.39 221.357 1061.6 229.484 1061.6 239.06C1061.6 248.384 1059.39 256.448 1054.98 263.252C1050.7 269.93 1044.53 275.096 1036.46 278.75C1028.4 282.278 1018.76 284.042 1007.55 284.042H965.776L972.013 277.616V326H958.027ZM1048.37 326L1014.35 277.994H1029.47L1063.68 326H1048.37ZM972.013 278.75L965.776 272.135H1007.17C1020.4 272.135 1030.41 269.237 1037.22 263.441C1044.15 257.645 1047.61 249.518 1047.61 239.06C1047.61 228.476 1044.15 220.286 1037.22 214.49C1030.41 208.694 1020.4 205.796 1007.17 205.796H965.776L972.013 199.181V278.75Z" fill="white"/>
<path d="M215.61 5C215.998 5.00021 216.372 5.14857 216.661 5.41702L423.793 197.61C424.033 197.836 424.202 198.132 424.278 198.46C424.355 198.787 424.335 199.132 424.222 199.448C424.108 199.761 423.906 200.031 423.641 200.221C423.377 200.411 423.063 200.513 422.742 200.513H8.59687C8.27574 200.513 7.96222 200.411 7.69791 200.221C7.4336 200.031 7.23098 199.761 7.11693 199.448C7.00381 199.132 6.98423 198.787 7.06076 198.46C7.13728 198.132 7.30638 197.836 7.54611 197.61L214.604 5.41702C214.883 5.16115 215.239 5.01385 215.61 5ZM418.554 197.193L215.61 8.89233L12.8591 197.193H418.554Z" fill="white" stroke="white" stroke-width="10" stroke-miterlimit="10"/>
<path d="M422.795 197.193C423.02 197.192 423.243 197.244 423.446 197.347C423.732 197.478 423.975 197.695 424.144 197.97C424.312 198.244 424.399 198.565 424.393 198.892V583.246C424.399 583.572 424.312 583.893 424.144 584.168C423.975 584.443 423.732 584.659 423.446 584.79C423.167 584.922 422.858 584.966 422.555 584.917C422.253 584.867 421.971 584.727 421.744 584.512L214.597 392.32C214.43 392.165 214.296 391.974 214.204 391.761C214.113 391.548 214.065 391.318 214.065 391.084C214.065 390.851 214.113 390.62 214.204 390.407C214.296 390.194 214.43 390.003 214.597 389.848L421.67 197.61C421.982 197.33 422.383 197.181 422.795 197.193ZM421.211 579.539V202.552L218.119 390.991L421.211 579.539Z" fill="white" stroke="white" stroke-width="10" stroke-miterlimit="10"/>
<path d="M8.59861 197.194C8.9852 197.198 9.35768 197.346 9.64937 197.611L216.722 389.818C216.889 389.974 217.023 390.164 217.115 390.377C217.207 390.59 217.254 390.821 217.254 391.054C217.254 391.288 217.207 391.519 217.115 391.731C217.023 391.944 216.889 392.135 216.722 392.29L9.64937 584.482C9.42358 584.699 9.14153 584.841 8.8387 584.89C8.53586 584.939 8.22577 584.894 7.94744 584.76C7.66108 584.629 7.41832 584.413 7.24977 584.138C7.08121 583.863 6.9944 583.542 7.00028 583.216V198.862C6.9944 198.535 7.08121 198.215 7.24977 197.94C7.41832 197.665 7.66108 197.448 7.94744 197.317C8.15277 197.225 8.3754 197.183 8.59861 197.194V197.194ZM213.274 391.054L10.1821 202.615V579.54L213.274 391.054Z" fill="white" stroke="white" stroke-width="10" stroke-miterlimit="10"/>
<path d="M284.039 67.708C284.317 67.7094 284.589 67.7854 284.83 67.9288C285.072 68.0723 285.273 68.2781 285.416 68.5266C285.553 68.7784 285.626 69.0632 285.626 69.353C285.626 69.6428 285.553 69.9276 285.416 70.1794L217.087 197.561L424.115 582.425L421.318 584.062L215.296 201.006L9.95513 584.062L7.17285 582.518L213.476 197.654L145.295 70.8744C145.153 70.6242 145.078 70.3388 145.078 70.0481C145.078 69.7573 145.153 69.4719 145.295 69.2217C145.435 68.9726 145.633 68.765 145.872 68.6189C146.11 68.4729 146.38 68.3932 146.657 68.3876L283.995 67.8007L284.039 67.708ZM215.326 194.163L281.316 71.0443L149.424 71.6158L215.326 194.163Z" fill="white" stroke="white" stroke-width="10" stroke-miterlimit="10"/>
</svg>
